IKResults
version=1
nRows=6
nColumns=63
inDegrees=yes

Units are S.I. units (second, meters, Newtons, ...)
If the header above contains a line with 'inDegrees', this indicates whether rotational values are in degrees (yes) or radians (no).

endheader
time	pelvis_tilt	pelvis_list	pelvis_rotation	pelvis_tx	pelvis_ty	pelvis_tz	hip_flexion_r	hip_adduction_r	hip_rotation_r	knee_angle_r	knee_angle_r_beta	ankle_angle_r	subtalar_angle_r	mtp_angle_r	hip_flexion_l	hip_adduction_l	hip_rotation_l	knee_angle_l	knee_angle_l_beta	ankle_angle_l	subtalar_angle_l	mtp_angle_l	L5_S1_Flex_Ext	L5_S1_Lat_Bending	L5_S1_axial_rotation	L4_L5_Flex_Ext	L4_L5_Lat_Bending	L4_L5_axial_rotation	L3_L4_Flex_Ext	L3_L4_Lat_Bending	L3_L4_axial_rotation	L2_L3_Flex_Ext	L2_L3_Lat_Bending	L2_L3_axial_rotation	L1_L2_Flex_Ext	L1_L2_Lat_Bending	L1_L2_axial_rotation	L1_T12_Flex_Ext	L1_T12_Lat_Bending	L1_T12_axial_rotation	Abs_r3	Abs_r2	Abs_r1	Abs_t1	Abs_t2	neck_flexion	neck_bending	neck_rotation	arm_flex_r	arm_add_r	arm_rot_r	elbow_flex_r	pro_sup_r	wrist_flex_r	wrist_dev_r	arm_flex_l	arm_add_l	arm_rot_l	elbow_flex_l	pro_sup_l	wrist_flex_l	wrist_dev_l
      0.03333333	     16.16179334	     -0.28378625	     37.85143968	     -1.28885604	      0.95931850	      0.70551372	     -9.49176039	      6.71217195	    -17.44385182	     23.62512234	      0.41233617	     -6.69341233	     -0.46694828	      0.00000000	    -16.21069629	    -23.34191369	    -23.51135287	     12.58788482	      0.21970004	     11.43245465	     -3.51780467	      0.00000000	     -3.67375109	      1.16036470	     -2.17671592	     -6.82252315	      1.54328505	     -2.31276066	     -6.03560567	      2.82131073	     -2.31276066	     -4.19873012	      2.82131073	     -1.90462643	     -3.41144526	      2.36621570	     -1.76858168	     -2.09918137	      1.79740492	     -1.63253694	    -26.24123666	     13.12627757	    -12.10624092	      0.00000000	      0.00000000	     25.79789911	     -1.08843416	     20.39750535	      6.62745681	    -14.83897076	     -0.15070462	     28.32709959	     89.99559364	      0.00000000	      0.00000000	      1.55041425	     -1.47492058	    -46.96687483	     28.26148264	     89.99559364	      0.00000000	      0.00000000
      0.06666667	     15.82653367	     -0.06975279	     37.72322711	     -1.28690616	      0.95929040	      0.70704531	     -9.38321598	      6.48186726	    -17.22684538	     23.74448375	      0.41441942	     -6.06611027	     -0.47369426	      0.00000000	    -15.51582753	    -23.23223516	    -23.04281241	     13.60029803	      0.23736998	     11.83916671	     -3.76522594	      0.00000000	     -3.69120197	      1.12663604	     -2.06560297	     -6.85493118	      1.49842593	     -2.19470316	     -6.06427572	      2.73930286	     -2.19470316	     -4.21867473	      2.73930286	     -1.80740260	     -3.42765015	      2.29743621	     -1.67830242	     -2.10915281	      1.74515922	     -1.54920223	    -26.36588655	     12.74473219	    -11.48826405	      0.00000000	      0.00000000	     26.38549774	     -1.25752463	     20.01355647	      6.30031360	    -14.96491644	     -0.15780578	     29.02185598	     89.99559364	      0.00000000	      0.00000000	      1.62579842	     -1.76974806	    -46.89463509	     27.91278097	     89.99559364	      0.00000000	      0.00000000
      0.10000000	     14.22301921	     -0.40414687	     37.57198768	     -1.28234790	      0.95729581	      0.70925867	     -7.71292112	      5.90013633	    -17.32175005	     24.48270302	      0.42730378	     -4.57433510	     -0.23361630	      0.00000000	    -12.77730436	    -22.70394248	    -19.48330950	     15.45040421	      0.26966042	     11.74251370	     -7.95784785	      0.00000000	     -3.48195677	      1.07106871	     -1.81974044	     -6.46634193	      1.42452138	     -1.93347422	     -5.72050679	      2.60419646	     -1.93347422	     -3.97952840	      2.60419646	     -1.59227288	     -3.23334506	      2.18412331	     -1.47853911	     -1.98959010	      1.65908543	     -1.36480533	    -24.87126905	     12.11614347	    -10.12085040	      0.00000000	      0.00000000	     26.67531210	     -2.15852430	     17.79214325	      4.83214550	    -15.06437204	     -1.59151856	     30.47949558	     89.99559364	      0.00000000	      0.00000000	      1.31810816	     -2.50490795	    -44.78319511	     26.97045336	     89.99559364	      0.00000000	      0.00000000
      0.13333333	     12.67772100	     -0.48862180	     37.33483447	     -1.27661121	      0.95562107	      0.71216669	     -6.40028565	      5.35446707	    -16.97719005	     24.98386843	      0.43605076	     -3.05766088	     -0.41048790	      0.00000000	     -9.94882343	    -22.17545666	    -16.78840077	     17.98553864	      0.31390687	     12.02207068	    -10.86055574	      0.00000000	     -3.32475735	      0.98983434	     -1.49468336	     -6.17440688	      1.31647967	     -1.58810107	     -5.46224385	      2.40668321	     -1.58810107	     -3.79986518	      2.40668321	     -1.30784794	     -3.08736968	      2.01847019	     -1.21443023	     -1.89976635	      1.53325339	     -1.12101252	    -23.74840929	     11.19720402	     -8.31298044	      0.00000000	      0.00000000	     27.08366745	     -3.13370997	     14.38817896	      3.53981349	    -15.41113575	     -1.57964282	     31.55509684	     89.99559364	      0.00000000	      0.00000000	      1.25539939	     -3.22779778	    -43.44640947	     26.12710306	     89.99559364	      0.00000000	      0.00000000
      0.16666667	     11.01926657	     -0.53125077	     37.30668789	     -1.27013659	      0.95375017	      0.71509296	     -5.13733494	      4.84208500	    -16.76726227	     25.31711490	      0.44186701	     -1.56432752	     -0.85885293	      0.00000000	     -6.63381344	    -21.44065200	    -13.10846103	     20.96366970	      0.36588506	     11.73165424	    -14.83210730	      0.00000000	     -3.15761111	      0.89465411	     -1.19922014	     -5.86399958	      1.18988997	     -1.27417140	     -5.18763929	      2.17526200	     -1.27417140	     -3.60883373	      2.17526200	     -1.04931762	     -2.93215767	      1.82437866	     -0.97436637	     -1.80425899	      1.38581922	     -0.89941511	    -22.55450037	     10.12050622	     -6.66970267	      0.00000000	      0.00000000	     27.24113795	     -3.79556285	     10.80099978	      2.51733728	    -15.71580644	     -0.94309456	     32.00265546	     89.99559364	      0.00000000	      0.00000000	      1.08220145	     -4.13941676	    -41.10312576	     25.45802451	     89.99559364	      0.00000000	      0.00000000
      0.20000000	      9.90561946	     -0.24375184	     37.54286793	     -1.26345406	      0.95282205	      0.71757151	     -4.81464129	      4.54700232	    -16.64319605	     25.14257314	      0.43882068	     -0.49141569	     -1.52676456	      0.00000000	     -3.88455213	    -20.80528034	    -10.34960910	     23.94330738	      0.41788955	     11.47689173	    -17.22891954	      0.00000000	     -3.09421888	      0.79986278	     -0.94926446	     -5.74627389	      1.06381750	     -1.00859348	     -5.08349220	      1.94478637	     -1.00859348	     -3.53638276	      1.94478637	     -0.83060640	     -2.87329165	      1.63108019	     -0.77127737	     -1.76803667	      1.23898745	     -0.71194834	    -22.10169605	      9.04820777	     -5.27952413	      0.00000000	      0.00000000	     27.24356268	     -3.99229514	      7.13636249	      2.01763616	    -16.03220574	      0.67096905	     31.59166259	     89.99559364	      0.00000000	      0.00000000	      1.07571672	     -5.10280228	    -38.10947927	     25.18156458	     89.99559364	      0.00000000	      0.00000000
